<?xml version="1.0" encoding="UTF-8"?><!DOCTYPE svg PUBLIC "-//W3C//DTD SVG 20010904//EN" "http://www.w3.org/TR/2001/REC-SVG-20010904/DTD/svg10.dtd"><svg xmlns="http://www.w3.org/2000/svg" width="24" height="24" viewBox="0 0 24 24"><path fill="black" d="M 19.50,19.50C 19.50,19.50 12.00,19.50 12.00,19.50 12.00,19.50 4.50,19.50 4.50,19.50 4.50,18.00 6.37,17.27 6.97,17.06 7.57,16.84 8.44,16.76 9.00,16.64 9.31,16.57 9.78,16.40 9.93,16.21 10.09,16.02 9.99,14.29 9.99,14.29 9.99,14.29 9.71,13.85 9.55,13.45 9.40,13.05 9.23,11.97 9.23,11.97 9.23,11.97 8.91,11.97 8.80,11.41 8.68,10.80 8.49,10.56 8.51,10.10 8.54,9.68 8.76,9.66 8.78,9.66 8.78,9.66 8.78,9.66 8.78,9.66 8.78,9.66 8.55,9.01 8.52,7.67 8.48,6.07 9.70,4.50 12.00,4.50 14.30,4.50 15.52,6.07 15.48,7.67 15.45,9.02 15.22,9.66 15.22,9.66 15.22,9.66 15.22,9.66 15.22,9.66 15.24,9.66 15.46,9.68 15.49,10.11 15.51,10.56 15.32,10.81 15.20,11.42 15.09,11.98 14.77,11.98 14.77,11.98 14.77,11.98 14.60,13.06 14.45,13.45 14.29,13.85 14.01,14.30 14.01,14.30 14.01,14.30 13.91,16.03 14.07,16.21 14.22,16.40 14.69,16.57 15.00,16.65 15.56,16.77 16.43,16.84 17.03,17.06 17.63,17.27 19.50,18.00 19.50,19.50 Z" /></svg>
